<svg xmlns="http://www.w3.org/2000/svg" fill="none" viewBox="0 0 121 40" height="40" width="121">
<path fill="black" d="M43.5273 6.22351C43.61 6.22351 43.6907 6.21873 43.7545 6.21088C43.844 6.21088 43.9249 6.19349 43.9761 6.16825L44.1474 6.24567C44.1946 6.34186 44.2464 6.48546 44.3022 6.66999C44.3658 6.88469 44.4673 7.1608 44.6118 7.50956C44.839 8.08564 45.0793 8.71681 45.3261 9.38446C45.5729 10.052 45.8699 10.7858 46.2102 11.5653C46.497 12.2424 46.7155 12.8121 46.8585 13.2634C47.0079 13.7368 47.1532 14.1282 47.2877 14.428C47.4409 14.7737 47.6373 15.0293 47.8723 15.1886C48.1128 15.3496 48.442 15.4286 48.879 15.4286C49.147 15.4286 49.3646 15.367 49.5273 15.2456C49.6735 15.1366 49.7944 14.9882 49.8856 14.8052C49.9633 14.6473 50.0309 14.4643 50.0923 14.2418C50.1418 14.0603 50.2179 13.8583 50.3101 13.6563C50.4004 13.4843 50.4609 13.328 50.4899 13.1892L50.5504 12.902C50.5685 12.7915 50.571 12.689 50.5521 12.6512C50.5615 12.6179 50.5921 12.5391 50.6841 12.3844C50.813 12.1667 50.8781 11.9378 50.8781 11.7059V11.5227H50.7414L51.0126 11.395C51.1076 11.1835 51.2042 10.9372 51.3001 10.6659C51.3748 10.4512 51.9232 8.97414 51.9232 8.97414C52.1692 8.28772 52.3618 7.72426 52.4939 7.30132C52.6203 6.89731 52.7312 6.58011 52.8207 6.35925C52.9307 6.08776 52.9976 6.02943 53.1335 5.99157C53.2356 5.99157 53.3261 6.00095 53.403 6.01835C53.5264 6.04513 53.6616 6.05775 53.8038 6.05775H54.1394C54.2911 6.05775 54.4269 6.03728 54.5417 5.99618C54.6863 5.9457 54.8066 5.85736 54.8978 5.73269C54.9944 5.6048 55.0408 5.43596 55.0408 5.21664C55.0408 5.04934 55.0195 4.90729 54.9763 4.78262C54.919 4.61856 54.7908 4.48281 54.5975 4.38015C54.4442 4.29812 54.2376 4.23348 53.9649 4.183C53.7151 4.13729 53.3904 4.09942 52.9717 4.06941C52.7626 4.05356 52.5708 4.04725 52.3964 4.04725C52.2187 4.04725 52.0601 4.05525 51.9186 4.06941C51.7914 4.08511 51.6773 4.09311 51.5052 4.09311C51.4597 4.09311 51.4094 4.09311 51.3529 4.09142L50.4091 4.01416C50.2943 4.00462 50.189 4 50.0938 4C49.9548 4 49.8346 4.00939 49.7308 4.03155C49.492 4.0788 49.3104 4.20978 49.2043 4.41186C49.1178 4.57746 49.0762 4.79678 49.0762 5.08567C49.0762 5.24342 49.1296 5.62542 49.6295 5.76117C49.862 5.82427 50.1214 5.86844 50.4011 5.89214C50.5599 5.9063 50.7108 5.92369 50.8734 5.92369C50.9646 5.92369 51.0596 5.91738 51.1619 5.90307C51.0149 6.34663 50.8703 6.79466 50.7328 7.23191C50.6117 7.60744 50.4836 7.98944 50.3524 8.37129C50.2282 8.7342 50.1064 9.02924 49.9885 9.25503C49.7592 9.70628 49.6215 10.0441 49.5682 10.2871C49.5147 10.5332 49.484 10.628 49.4659 10.6707C49.235 11.2845 49.0597 11.7657 48.9434 12.0972C48.8311 12.4175 48.7406 12.6542 48.6755 12.7978L48.8004 12.8546L48.8002 12.8548L48.7029 12.9667C48.6974 12.9588 48.666 12.9116 48.6204 12.7647C48.5387 12.5106 48.4083 12.203 48.2141 11.8194C48.1434 11.7122 48.057 11.5543 47.9564 11.3491C47.866 11.1629 47.7599 10.9214 47.6404 10.6311C47.5219 10.3424 47.3937 9.96362 47.2578 9.50436C47.1612 9.18238 47.0527 8.89827 46.9379 8.66479C46.8373 8.45809 46.7501 8.23877 46.6762 8.00037C46.5025 7.47493 46.3344 7.04414 46.1748 6.71893C45.9855 6.33078 45.976 6.18872 45.9596 6.09884C45.9776 6.0893 46.0358 6.06406 46.1662 6.04205C46.2872 6.02158 46.4523 6.00573 46.6652 5.99157C46.9811 5.96002 47.2625 5.92215 47.5022 5.87629C47.8841 5.80534 48.1034 5.54015 48.1034 5.15031C48.1034 4.96885 48.1034 4.41817 47.682 4.23671C47.4857 4.15298 47.2035 4.11204 46.8208 4.11204C46.5419 4.11204 46.266 4.13575 46.0036 4.183C45.7764 4.22255 45.5689 4.24456 45.3866 4.24456C45.1564 4.24456 44.934 4.21147 44.7257 4.14837C44.457 4.06618 44.127 4.02524 43.745 4.02524C42.9498 4.02524 42.4869 4.11051 42.2465 4.29966C41.9911 4.50174 41.8613 4.8094 41.8739 5.30652C41.9101 5.42811 41.958 5.53862 42.0068 5.61588C42.0422 5.6996 42.0774 5.76902 42.1136 5.82904C42.1631 5.91107 42.1993 5.96002 42.2385 5.99618L42.3722 6.0736L42.4177 6.07837C42.5474 6.09099 42.6866 6.113 42.8161 6.13824C42.9538 6.17148 43.1086 6.19503 43.276 6.21088C43.3609 6.21873 43.4449 6.22351 43.5273 6.22351Z" clip-rule="evenodd" fill-rule="evenodd"></path>
<path fill="black" d="M40.4161 28.379C40.3053 28.3283 40.1625 28.2791 39.9909 28.2299C39.8289 28.1856 39.6667 28.1458 39.5238 28.1189C39.3409 28.073 39.1597 28.0365 38.9301 28C37.6801 28 36.6016 28.452 35.7247 29.3399L35.2802 29.779C35.2287 29.8298 35.1799 29.8661 35.1606 29.8916C35.1414 29.7458 35.1309 29.5824 35.1309 29.3937C35.1109 28.9657 35.0121 28.6581 34.8293 28.4551C34.6335 28.2378 34.3061 28.1316 33.8286 28.1316C33.6795 28.1316 31.8749 28.1648 31.8749 28.1648C31.4536 28.1808 30.8768 28.2029 30.5783 28.7104C30.4105 28.9974 30.3761 29.3399 30.4828 29.6507C30.5806 29.9439 30.7869 30.1673 31.1657 30.307L31.3397 30.3118C31.5314 30.3118 31.7682 30.2974 32.041 30.2674C32.2913 30.2388 32.5537 30.2245 32.8185 30.2245C32.9429 30.2245 33.044 30.2324 33.1667 30.2974C33.1891 30.3323 33.2301 30.4259 33.2558 30.6479C33.279 30.8556 33.2902 31.1458 33.2902 31.512C33.2902 31.6152 33.2871 31.6991 33.2807 31.761C33.2702 31.8434 33.2661 31.9496 33.2661 32.0811C33.2661 32.2985 33.2902 32.617 33.3416 33.0596C33.389 33.4701 33.4139 34.0188 33.4139 34.6894C33.4139 34.7925 33.3937 34.9764 33.3561 35.2348C33.3128 35.525 33.2902 35.9388 33.2902 36.4652C33.2902 36.6062 33.3007 36.7203 33.3223 36.8171C33.3304 36.8536 33.34 36.9201 33.34 37.0344C33.34 37.2563 33.2951 37.3166 33.2976 37.3166C33.2894 37.3214 33.1876 37.38 32.8185 37.38C32.7038 37.38 32.5481 37.3594 32.3443 37.3166L32.1895 37.3183L32.147 37.3373C32.0482 37.369 31.9415 37.3848 31.8172 37.4038C31.5386 37.4451 31.1929 37.4958 30.9394 37.789C30.7974 37.954 30.681 38.1713 30.616 38.536C30.6713 38.7848 30.758 38.9973 30.8791 39.186L31.0043 39.3032L31.0549 39.3175C31.2989 39.3921 31.5604 39.4286 31.8324 39.4286C31.9559 39.4286 32.0595 39.4191 32.1526 39.4C32.1783 39.3936 32.2135 39.3888 32.2938 39.3888C32.3291 39.3888 32.3731 39.3905 32.4293 39.3921C32.4888 39.4015 32.5593 39.4079 32.6461 39.4079C32.8891 39.4079 33.1451 39.3888 33.4082 39.3492C33.6361 39.316 33.835 39.2968 34.0012 39.2968H34.3462C34.4722 39.2968 34.5758 39.2874 34.6615 39.2684L34.806 39.232C34.9302 39.2351 35.1727 39.2588 35.524 39.3049C35.9212 39.3588 36.4122 39.3857 36.9836 39.3857C37.1625 39.3857 37.3334 39.3683 37.5581 39.3208L37.6495 39.2557L37.6808 39.213C37.8727 38.9512 37.9472 38.6897 37.9015 38.4392C37.8541 38.1728 37.6736 37.935 37.3663 37.7336C37.0116 37.4974 36.6153 37.3483 36.1234 37.2104C35.9582 37.22 35.7921 37.2263 35.6284 37.2263C35.4303 37.2263 35.4214 37.1706 35.411 37.1058C35.3716 36.8615 35.3347 36.4842 35.3035 35.98C35.2874 35.7802 35.2666 35.4394 35.2415 34.9701C35.2176 34.5023 35.2055 33.8697 35.2055 33.0896C35.2055 32.8756 35.317 32.5838 35.5281 32.2461C35.7607 31.872 36.0432 31.5041 36.3673 31.1536C36.6851 30.8064 37.0132 30.5115 37.3431 30.2737C37.7186 30.0042 37.8967 29.9645 38.1029 29.9645C38.1117 29.9645 38.2962 29.9485 38.2962 29.9485C38.7247 29.9485 38.9686 30.4084 39.2302 30.9887C39.3914 31.3566 39.5584 31.7372 40.0414 31.8497C40.2018 31.8878 40.3776 31.9068 40.5493 31.9068C40.6512 31.9068 40.753 31.9003 40.9834 31.8196C41.4263 31.6547 41.7127 31.3234 41.8587 30.8049L41.8716 30.6431C41.8813 30.2197 41.7584 29.7917 41.5074 29.3699C41.2562 28.9467 40.8903 28.6137 40.4161 28.379Z" clip-rule="evenodd" fill-rule="evenodd"></path>
<path fill="black" d="M28.8409 13.8286C28.5977 13.6646 28.3244 13.5753 28.0211 13.5607L27.7085 13.5657C27.6216 13.5657 27.5435 13.5576 27.4748 13.5429L27.3554 13.3757C27.3554 13.3531 27.3602 13.2605 27.4036 12.8969C27.4384 12.5984 27.4606 12.2136 27.4692 11.7545C27.4771 11.2951 27.5127 10.0925 27.5119 10.0001C27.5087 9.79384 27.4968 9.61214 27.4779 9.46446C27.4612 9.34274 27.4526 9.187 27.4495 9.00355C27.4432 8.63507 27.4463 8.31709 27.4574 8.06226C27.4693 7.78463 27.4733 7.58995 27.4716 7.46491C27.4716 7.46491 27.4408 6.99608 27.4329 6.81422L27.2576 6.2088L27.1818 5.91186C27.1407 5.74963 27.098 5.64089 27.0515 5.56935C26.9891 5.45586 26.8896 5.32765 26.7467 5.17507C26.6133 5.03389 26.4616 4.89254 26.2959 4.75136C26.1292 4.61033 25.9578 4.48529 25.7863 4.37987C25.5936 4.2629 25.4485 4.19801 25.292 4.17205C25.1223 4.1624 24.9968 4.13802 24.8309 4.03735L24.7195 4L24.6642 4.00174C23.9717 4.0114 23.2342 4.28079 22.4738 4.80169C21.729 5.30977 21.0807 5.97834 20.5422 6.79317C20.5193 6.83052 20.4948 6.86772 20.468 6.9084L20.4577 6.28351L20.4758 6.10829C20.4909 5.97185 20.4963 5.82259 20.494 5.66036C20.4877 5.22208 20.3289 4.90884 20.0218 4.73205C19.7747 4.59086 19.4366 4.50159 18.9904 4.45933L18.4842 4.40092C18.2948 4.37655 18.0784 4.36515 17.8375 4.36515L17.674 4.36689C17.4435 4.37006 17.224 4.49178 17.002 4.73679C16.7856 4.97374 16.6784 5.26751 16.6838 5.60828C16.6863 5.75928 16.7636 5.90854 16.9366 6.09357C17.0636 6.23159 17.1939 6.34524 17.3432 6.44258C17.5422 6.55448 17.7301 6.6113 17.918 6.6113L18.2031 6.60656C18.3926 6.61463 18.534 6.66496 18.636 6.76072C18.7275 6.84667 18.7726 6.92454 18.7741 6.99925C18.7891 7.97948 18.7827 8.79098 18.7544 9.41254C18.7251 10.0422 18.7125 10.4706 18.7157 10.6881L18.7322 11.7283C18.7409 12.2608 18.7362 12.6859 18.7181 12.9943C18.7014 13.2815 18.6715 13.4943 18.5625 13.7409C18.5167 13.7621 18.4236 13.7879 18.174 13.7896C18.1036 13.7635 18.02 13.7523 17.8968 13.7523C17.896 13.7523 17.6189 13.7442 17.6189 13.7442C17.4515 13.7442 17.2982 13.7944 17.1773 13.8901C17.0621 13.9778 16.9704 14.1271 16.8883 14.3593C16.8156 14.5654 16.7818 14.7439 16.7833 14.9077C16.7881 15.182 16.9167 15.4353 17.1656 15.6576C17.3977 15.8686 17.6851 15.9756 18.0428 15.9756H18.0436C18.1518 15.974 18.2435 15.9611 18.3224 15.9384L18.2837 15.8022H18.2838L18.4906 15.9237C18.6809 15.9237 18.958 15.9384 19.3158 15.966C19.627 15.9886 20.0061 16 20.4473 16L20.9016 15.9967C21.0137 15.9951 21.1462 15.9886 21.3121 15.9788C21.4906 15.966 21.6674 15.9319 21.8373 15.8765C22.0409 15.8118 22.2147 15.6917 22.3521 15.5212C22.4998 15.3379 22.5725 15.0912 22.5669 14.7877C22.5653 14.6318 22.4872 14.4663 22.2985 14.2148C22.1073 13.9599 21.7954 13.8301 21.2474 13.8301H21.2411C20.9938 13.8301 20.7799 13.814 20.5271 13.6435C20.5264 13.6093 20.5279 13.486 20.5405 13.0365C20.5501 12.6877 20.5658 12.2201 20.5887 11.6391L20.6046 10.4512C20.6077 10.237 20.6314 10.0536 20.6748 9.9059C20.7167 9.76298 20.7981 9.59425 20.9623 9.33625L21.5568 8.39496C21.7109 8.13855 21.9052 7.88213 22.1341 7.63047C22.3647 7.37738 22.6095 7.15009 22.8615 6.95382C23.1102 6.76072 23.3645 6.60007 23.6133 6.47661C23.8414 6.3647 24.0429 6.3063 24.2987 6.30297C24.5324 6.30297 24.7354 6.31928 24.9036 6.35172C25.0442 6.38085 25.1546 6.44748 25.2526 6.56429C25.36 6.69583 25.4428 6.90017 25.4981 7.17446C25.5613 7.48279 25.5976 7.92756 25.6072 8.4923C25.6127 8.87376 25.5969 9.31504 25.559 9.80856C25.5203 10.323 25.5044 10.8472 25.5125 11.3665C25.514 11.477 25.5211 11.5645 25.5314 11.6359C25.5385 11.6829 25.5417 11.7462 25.5431 11.8194C25.5471 12.0677 25.5463 12.2948 25.5423 12.4962C25.5377 12.6924 25.5052 13.4229 25.5052 13.4229C25.4903 13.4455 25.4382 13.5072 25.2865 13.5737C25.1326 13.6435 24.9667 13.6791 24.793 13.6825C24.5679 13.6856 24.346 13.7149 24.1328 13.7686C23.7941 13.8529 23.603 14.1109 23.6093 14.4761C23.6164 14.8916 23.7103 15.1983 23.8967 15.4158C24.0894 15.6398 24.3177 15.7534 24.5924 15.7534L24.9304 15.7485C25.0448 15.7469 25.1453 15.7355 25.2147 15.721C25.2984 15.7192 25.3837 15.708 25.4453 15.695L26.449 15.6997C26.7546 15.7096 27.0159 15.7274 27.2307 15.7534C27.4913 15.7794 27.7306 15.7988 27.9643 15.8118C28.2636 15.8069 28.4966 15.7581 28.6758 15.6657C28.8614 15.5731 29.0051 15.4531 29.1038 15.3086C29.2066 15.1594 29.2626 14.9922 29.272 14.8088C29.2776 14.679 29.28 14.5669 29.2783 14.4728C29.2752 14.2358 29.1323 14.0264 28.8409 13.8286Z" clip-rule="evenodd" fill-rule="evenodd"></path>
<path fill="black" d="M33.4436 6.22285H34.3568C34.7704 6.22285 35.114 6.19745 35.3824 6.14976L35.7538 6.06722C35.855 6.07048 35.8982 6.08627 35.9069 6.08627C35.9085 6.08627 35.9092 6.08627 35.9092 6.08472C35.9355 6.13396 35.9666 6.23245 35.9666 6.41656C35.9666 6.87693 35.9587 7.30725 35.9419 7.69778C35.926 8.08846 35.9172 8.41705 35.9172 8.6744C35.9172 8.78713 35.9315 8.88082 35.9666 9.02839C35.9666 9.92697 35.9459 10.6479 35.9052 11.1718C35.8638 11.71 35.8432 12.0451 35.8432 12.1706C35.8432 12.2054 35.8471 12.2658 35.8845 12.4801C35.9069 12.604 35.9172 12.7533 35.8422 12.9866C35.7427 13.1072 35.6829 13.1455 35.6582 13.158C35.5713 13.2073 35.5172 13.2184 35.479 13.2184C35.479 13.2184 35.2262 13.2073 35.0732 13.2073C34.9417 13.2073 34.8318 13.1994 34.7488 13.1882C34.6843 13.1786 34.6134 13.174 34.5353 13.174C34.4636 13.174 34.3848 13.1772 34.2954 13.1867C34.1592 13.2025 34.0453 13.2169 33.9551 13.2328C33.909 13.2406 33.8508 13.2469 33.728 13.2469C33.6778 13.2469 33.6164 13.2455 33.5407 13.2438C33.4722 13.2328 33.3797 13.228 33.2785 13.228C33.1917 13.228 33.0977 13.2311 33.0075 13.2375L32.8411 13.2931L32.8044 13.3312C32.641 13.4947 32.1175 14.0774 32.2488 14.6522C32.2967 14.857 32.4481 15.1364 32.8729 15.2793L32.9932 15.3524L33.034 15.3587C33.3169 15.4064 33.6547 15.4286 34.0364 15.4286C34.2276 15.4286 34.6262 15.3968 35.2557 15.3285C35.8519 15.2635 36.5961 15.2301 37.4673 15.2301L37.9166 15.2254C38.006 15.2095 38.0848 15.1937 38.2818 15.1635C38.8291 15.1635 39.2723 15.1983 39.5975 15.2666C39.8445 15.3206 40.0366 15.3539 40.2971 15.3539H40.3769C40.4613 15.3191 40.5426 15.2793 40.631 15.2254C40.7299 15.1602 40.8207 15.084 40.9012 15C41.2495 14.6362 41.5236 13.9169 41.0408 13.4566C40.9634 13.3819 40.8709 13.32 40.7003 13.2406C40.6063 13.2153 40.5266 13.1978 40.4493 13.1882C40.2199 13.1549 39.9895 13.1407 39.7632 13.1407C39.2516 13.1407 38.8938 13.174 38.6682 13.2423C38.5072 13.2931 38.3828 13.3169 38.2864 13.3169C38.1511 13.3169 38.1001 13.2677 38.0649 13.2153C37.9923 13.1057 37.9558 12.9485 37.9558 12.7469C37.9558 11.9974 37.9645 11.4115 37.9805 10.9988C37.9979 10.5447 38.0052 10.3192 38.0052 10.2461C38.0052 9.95082 37.9972 9.59513 37.9805 9.16016C37.9645 8.75059 37.9558 8.28062 37.9558 7.76777V5.86406C37.9558 5.39394 37.9382 5.02571 37.9039 4.77006C37.8776 4.57944 37.7374 4.13332 36.9986 4.13332C36.6241 4.13332 36.291 4.15237 36.0048 4.19046C35.7642 4.22391 35.5402 4.24296 35.3322 4.24296C35.0589 4.24296 34.8309 4.20966 34.6349 4.13967C34.3711 4.04769 34.0946 4 33.8141 4C33.7145 4 33.5782 4.01595 33.3965 4.04924C33.2221 4.08253 33.049 4.13332 32.8809 4.19852C32.7096 4.26835 32.5605 4.34779 32.4371 4.43187C32.2457 4.5652 32.1406 4.75101 32.1406 4.95572C32.1406 5.47818 32.2235 5.79097 32.4091 5.96719C32.5916 6.14511 32.9104 6.22285 33.4436 6.22285Z" clip-rule="evenodd" fill-rule="evenodd"></path>
<mask height="12" width="12" y="28" x="16" maskUnits="userSpaceOnUse" style="mask-type:luminance" id="mask0_503_2114">
<path fill="white" d="M16.8281 28.1064H27.554V40.0001H16.8281V28.1064Z" clip-rule="evenodd" fill-rule="evenodd"></path>
</mask>
<g mask="url(#mask0_503_2114)">
<path fill="black" d="M18.9254 32.9195C18.9722 32.6735 19.0232 32.4467 19.0774 32.2454C19.1275 32.052 19.1808 31.8969 19.2341 31.7866C19.3173 31.6204 19.4475 31.44 19.6189 31.2481C19.7952 31.0532 20.0044 30.8679 20.2404 30.6967C20.4748 30.5291 20.7335 30.39 21.0098 30.283C21.2774 30.1807 21.5537 30.1281 21.831 30.1281C22.7993 30.1281 23.5994 30.3357 24.2088 30.7465C24.7995 31.1474 25.1867 31.766 25.3589 32.5807C25.3953 32.7949 25.4503 32.9931 25.523 33.1673C25.5723 33.287 25.5958 33.3399 25.5958 33.3383C25.5949 33.8305 25.5723 34.2411 25.5269 34.5623C25.4809 34.8787 25.4292 35.1391 25.3687 35.3309C25.3121 35.5147 25.2555 35.6585 25.2014 35.7592C25.1407 35.8695 25.089 35.959 25.0348 36.0436C24.7956 36.4686 24.549 36.8043 24.3009 37.0391C24.0553 37.2709 23.8062 37.445 23.5606 37.5553C23.3124 37.6655 23.0627 37.7344 22.8171 37.7599C22.5527 37.7886 22.2933 37.8029 22.0468 37.8029C21.6305 37.8029 21.2409 37.7263 20.8894 37.5745C20.533 37.4211 20.2145 37.2213 19.943 36.9768C19.6739 36.7371 19.4444 36.4575 19.2601 36.1475C19.0831 35.8486 18.9714 35.5371 18.9279 35.2207C18.8939 35.0033 18.8616 34.818 18.8292 34.655C18.8009 34.516 18.7873 34.3801 18.7873 34.2523C18.7873 34.0701 18.7985 33.8624 18.8212 33.6307C18.8445 33.3989 18.8794 33.161 18.9254 32.9195ZM26.657 30.756C26.4007 30.3324 26.1251 29.941 25.8366 29.5912C25.5231 29.2108 25.2256 28.9647 24.9193 28.8319C24.8546 28.8096 24.7665 28.7633 24.6566 28.6994C24.5176 28.621 24.3446 28.5364 24.1417 28.4516C23.9373 28.367 23.7118 28.2871 23.4686 28.2168C23.2099 28.1434 22.9335 28.1064 22.6474 28.1064C21.9321 28.1064 21.2968 28.1721 20.7594 28.3031C20.2016 28.4373 19.7038 28.645 19.2796 28.92C18.8519 29.1949 18.4737 29.5415 18.1552 29.9523C17.845 30.3533 17.5628 30.8262 17.3146 31.3583C17.1409 31.7259 17.014 32.2181 16.9388 32.8221C16.8653 33.4086 16.8281 34.0893 16.8281 34.8483C16.8281 34.9122 16.8377 35.0144 16.9082 35.3261C16.9582 35.553 17.0432 35.8262 17.1603 36.1394C17.2758 36.4494 17.4303 36.7946 17.6201 37.1573C17.8133 37.528 18.0542 37.8941 18.3338 38.2424C18.5481 38.5204 18.8309 38.773 19.1728 38.9903C19.5179 39.2108 19.9204 39.369 20.3681 39.4631C20.7514 39.5479 21.1166 39.655 21.4537 39.7812C21.8399 39.9266 22.2578 40.0002 22.6959 40.0002C23.1411 40.0002 23.6278 39.8786 24.1417 39.6406C24.6453 39.4025 25.2289 38.9583 25.8738 38.3206C26.421 37.7855 26.8445 37.0503 27.1314 36.1348C27.4118 35.2399 27.554 34.182 27.554 32.9931C27.554 32.7582 27.4684 32.4338 27.2906 32.0024C27.1249 31.5997 26.9116 31.1794 26.657 30.756Z" clip-rule="evenodd" fill-rule="evenodd"></path>
</g>
<path fill="black" d="M14.397 23.5007C14.2888 23.5007 14.1964 23.5136 14.0475 23.5473C13.9265 23.5473 13.7936 23.5296 13.6503 23.4961C13.4464 23.4512 13.1894 23.4287 12.8646 23.4287H12.3001C12.0445 23.4287 11.8368 23.4736 11.6878 23.5617C11.5597 23.6289 11.4276 23.7426 11.2818 23.9092C11.1107 24.1046 11.024 24.3113 11.024 24.5196C11.024 24.8032 11.1433 25.0371 11.3694 25.1958C11.5597 25.3303 11.7827 25.3977 12.031 25.3977H12.2189C12.304 25.3977 12.5827 25.4055 12.5843 25.4841L12.3447 27.6293C12.254 28.3164 12.141 29.1029 12.0096 29.9682C11.8767 30.8461 11.7015 31.8025 11.4888 32.8101C11.3265 33.5663 11.2 34.1831 11.1107 34.6414C11.0908 34.7454 11.0709 34.8271 11.0534 34.891C11.0017 34.7806 10.9355 34.6108 10.8591 34.3498C10.6768 33.7361 10.5225 32.8485 10.3998 31.7143C10.3282 31.0511 10.2366 30.6393 10.1203 30.2229L10.0743 30.061L10.0273 29.9841L9.95956 29.5868C9.9476 29.4282 9.92695 29.2809 9.89745 29.1415L9.85459 28.9589C9.66266 27.8102 9.53456 27.0076 9.48828 26.6087C9.48828 26.5124 9.47788 26.4309 9.46126 26.402C9.46515 26.2257 9.50101 26.0817 9.60769 25.9936C9.68021 25.9583 9.75738 25.9311 9.83611 25.9119C9.95397 25.883 10.0304 25.8606 10.0782 25.8412C10.22 25.79 10.3544 25.6908 10.4906 25.5386C10.6482 25.3639 10.7246 25.1972 10.7246 25.0307C10.7246 24.6799 10.6124 24.4235 10.3903 24.2698C10.2136 24.1495 9.9636 24.0759 9.62524 24.047C9.4007 24.0295 9.1229 24.0213 8.79479 24.0213L8.35146 24.0246C7.94789 24.0246 7.46946 23.9974 6.93126 23.9429C6.77132 23.9252 6.64461 23.9173 6.54523 23.9173H6.19569C5.93932 23.9173 5.71012 23.9988 5.51416 24.1576C5.30484 24.329 5.18946 24.5629 5.18946 24.8191C5.18946 25.0307 5.21245 25.2036 5.2595 25.3478C5.32875 25.5611 5.51975 25.7244 5.82068 25.8348C5.92659 25.8798 6.04755 25.9119 6.19165 25.9294C6.27131 25.9406 6.34771 25.9648 6.42007 26.0033C6.48467 26.0353 6.53405 26.0753 6.57613 26.1329C6.58017 26.1376 6.61433 26.1857 6.61433 26.3507C6.61433 26.7015 6.55796 27.1533 6.44725 27.6949C6.32706 28.2716 6.24818 28.9061 6.21153 29.5804C6.17892 30.1301 6.11681 30.3622 6.0078 30.7692L5.90112 31.16C5.87721 31.232 5.85811 31.2947 5.8477 31.3812C5.62643 32.5202 5.51897 33.1625 5.52612 33.4046L5.47192 34.0084C5.44816 34.332 5.41307 34.6236 5.36618 34.8753C5.3494 34.8368 5.33108 34.7934 5.31198 34.7422C5.1862 34.4025 5.06912 33.938 4.96493 33.3629C4.65995 31.6486 4.37734 30.2999 4.12501 29.3562C3.88215 28.4397 3.72454 27.8407 3.66398 27.5988C3.61305 27.4338 3.56056 27.2399 3.50885 27.0204C3.45621 26.7977 3.41335 26.5862 3.37593 26.3748C3.325 26.1536 3.28121 25.9294 3.23012 25.6987C3.38059 25.6716 3.53742 25.6572 3.69519 25.6572C3.97703 25.6572 4.20218 25.6027 4.38293 25.4889C4.61228 25.3447 4.72843 25.0819 4.72843 24.7071C4.72843 24.4732 4.63123 24.2585 4.44737 24.0838C4.30498 23.9509 4.13371 23.8387 3.93557 23.7507C3.75637 23.6737 3.57096 23.6114 3.37826 23.5665C3.17919 23.5217 3.01925 23.5007 2.88788 23.5007C2.74456 23.5007 2.61722 23.5089 2.50573 23.5281C2.4357 23.5425 2.34657 23.5473 2.243 23.5473H1.86644C1.38569 23.5473 1.00587 23.5681 0.739249 23.6096C0.540954 23.6417 0.0800781 23.797 0.0800781 24.566C0.0800781 25.0867 0.318901 25.3191 0.519525 25.4216C0.697788 25.5113 0.821237 25.5706 0.898412 25.6059C1.01472 25.6555 1.09671 25.7244 1.14997 25.8125C1.22326 25.9342 1.27823 26.0639 1.31472 26.197C1.35696 26.3523 1.39034 26.511 1.41503 26.6679C1.44454 26.8554 1.47715 27.0188 1.51535 27.171C1.78041 28.1914 1.98197 29.0934 2.11489 29.8527C2.25495 30.6507 2.39502 31.253 2.54471 31.6936C2.78834 32.4098 3.01444 33.3739 3.21739 34.5628C3.4205 35.7548 3.68789 37.1917 4.01119 38.829C4.19504 39.8478 4.86943 40.0001 5.25468 40.0001H5.56354C5.71323 40.0001 5.85966 39.9631 6.00221 39.8911C6.13824 39.8175 6.25936 39.7084 6.362 39.5627C6.45672 39.4266 6.53482 39.2407 6.60082 38.9939C6.85564 37.9879 7.00284 37.1051 7.04027 36.3699C7.07536 35.6746 7.1367 35.1026 7.22257 34.6686C7.43919 33.6047 7.57692 32.6579 7.63189 31.8554C7.67801 31.1777 7.73934 30.7514 7.83391 30.4696C7.90006 30.2469 7.95332 30.093 7.99727 29.9698C8.0378 29.856 8.07273 29.7584 8.10472 29.6173C8.18034 29.8527 8.2496 30.1652 8.31249 30.5496C8.34587 30.7547 8.38097 30.8974 8.41513 31.0334C8.45581 31.1969 8.49712 31.3634 8.54013 31.6678C8.62134 32.2464 8.72725 32.8583 8.85302 33.4894C8.88734 33.6577 9.16902 35.2756 9.16902 35.2756V35.588C9.16902 35.7451 9.18735 35.9708 9.22477 36.2561C9.26141 36.5285 9.30676 36.8377 9.36002 37.1661C9.43098 37.677 9.49465 38.1017 9.54962 38.4252C9.60925 38.7729 9.68487 39.0372 9.7813 39.236C9.90071 39.4778 10.0679 39.6427 10.2773 39.7277C10.454 39.7997 10.6928 39.835 11.0088 39.835C11.324 39.835 11.891 39.702 12.1385 38.8113C12.2834 38.2876 12.4481 37.5168 12.6281 36.5221L13.0181 34.4267C13.1327 33.8083 13.2452 33.2683 13.3525 32.8085C13.4591 32.3007 13.5739 31.8248 13.7099 31.3011C13.7099 31.1664 13.7211 31.0383 13.7442 30.9181C13.7682 30.7931 13.7944 30.6827 13.8421 30.4954C13.8461 30.3815 13.8685 30.2597 13.9248 30.0258C13.9258 29.8737 13.9512 29.667 13.9997 29.4106C14.0531 29.1287 14.4026 27.4705 14.4026 27.4705C14.4758 27.1085 14.5402 26.7592 14.5952 26.4148C14.6112 26.2593 14.6311 26.1265 14.6557 26.0208C14.6781 25.9214 14.7043 25.8365 14.7329 25.7676C14.7536 25.7164 14.7871 25.6667 14.8317 25.6187C14.8938 25.5514 14.9821 25.4664 15.0857 25.3752C15.3818 25.1556 15.5379 24.8513 15.5379 24.4955C15.5379 24.196 15.4272 23.5007 14.397 23.5007Z" clip-rule="evenodd" fill-rule="evenodd"></path>
<path fill="black" d="M34.8554 2.77074C35.0002 2.94941 35.1797 3.10369 35.3887 3.22883C35.6143 3.36189 35.8861 3.42857 36.1978 3.42857C36.486 3.42857 36.739 3.37662 36.9497 3.27429C37.1431 3.17846 37.3084 3.07122 37.4407 2.95749C37.5888 2.8276 37.6929 2.6993 37.7602 2.5645C37.8339 2.41497 37.8667 2.30298 37.8667 2.20065C37.8667 1.86294 37.8151 1.55264 37.7117 1.27971C37.6107 1.01503 37.4892 0.789308 37.3507 0.609049C37.2089 0.423879 37.0554 0.277676 36.8948 0.173765C36.7132 0.0567073 36.5564 0 36.4164 0C36.1461 0 35.9362 0.034056 35.7741 0.105495L35.1938 0.363687C35.0566 0.422136 34.9283 0.508306 34.8139 0.615543C34.6854 0.734026 34.5867 0.898129 34.521 1.10278C34.4607 1.28795 34.4316 1.51367 34.4316 1.79467C34.4316 1.9149 34.4669 2.0611 34.5398 2.24453C34.6072 2.41497 34.7129 2.59206 34.8554 2.77074Z" clip-rule="evenodd" fill-rule="evenodd"></path>
<path fill="black" d="M1.10482 2.12586C1.29267 2.19977 1.50805 2.25098 1.74357 2.27682L2.40011 2.349C2.55665 2.36498 2.68251 2.41164 2.76715 2.4807C2.7703 2.48383 2.8035 2.51749 2.91237 2.70697L2.81388 3.53548C2.79547 3.71055 2.78729 3.89361 2.78729 4.07823C2.78729 4.15856 2.77518 4.27741 2.75268 4.43149C2.72515 4.61924 2.71146 4.78789 2.71146 4.92757C2.71146 5.12675 2.72043 5.34018 2.73726 5.56661C2.75425 5.78333 2.76149 5.96811 2.76149 6.1319C2.76149 6.57662 2.74056 7.19624 2.69934 7.97825C2.65749 8.76496 2.63641 9.70747 2.63641 10.7817C2.63641 11.4351 2.69856 12.0436 2.82033 12.5895C2.94053 13.1322 3.0955 13.6219 3.27941 14.0442C3.46805 14.473 3.67934 14.8294 3.90684 15.1023C4.15526 15.4026 4.39881 15.5968 4.64487 15.6933C5.2498 15.9596 5.76284 16.1732 6.17095 16.3257C6.61053 16.488 7.12358 16.5714 7.69625 16.5714C8.28419 16.5714 8.86253 16.4734 9.41428 16.2808C9.96273 16.0913 10.458 15.833 10.887 15.5134C11.3162 15.1939 11.68 14.8181 11.9687 14.3942C12.264 13.9608 12.451 13.5015 12.5253 13.0311C12.6091 12.5076 12.6979 11.9199 12.7898 11.2762C12.8834 10.6195 12.9309 9.88896 12.9309 9.10538C12.9309 8.60931 12.906 8.0827 12.8544 7.53996C12.806 7.0182 12.781 6.48031 12.781 5.94243C12.781 5.67419 12.814 5.32734 12.8769 4.90674C12.9471 4.44919 12.9819 4.02843 12.9819 3.65277C12.9819 3.45202 12.952 3.24329 12.8939 3.03142C12.8519 2.88204 12.831 2.75676 12.831 2.66203C12.831 2.53206 12.856 2.4309 12.9045 2.36357C12.9141 2.35073 12.9406 2.31361 13.0696 2.31361C13.1464 2.31361 13.2117 2.31847 13.2625 2.32974C13.3617 2.35214 13.4715 2.36184 13.5972 2.36184C14.1344 2.36184 14.4755 2.27682 14.6716 2.0922C14.8692 1.90585 14.9651 1.61366 14.9651 1.19776C14.9651 0.979469 14.9184 0.791562 14.8265 0.642175C14.728 0.484959 14.5781 0.367673 14.3821 0.293919C14.2377 0.239269 14.0659 0.192605 13.8546 0.157373L13.2334 0.0466638C13.1342 0.0161288 13.0431 0 12.8955 0C12.8793 0 12.7059 0.0112745 12.6181 0.0112745C12.4559 0.0112745 12.23 0.0449413 11.9268 0.113997C11.6759 0.171779 11.3766 0.200748 11.0355 0.200748C10.725 0.200748 10.4492 0.178199 10.2201 0.13498C9.94825 0.0834624 9.69008 0.0577816 9.45377 0.0577816C9.28275 0.0577816 9.03276 0.120418 8.81502 0.422323C8.66414 0.629335 8.58752 0.859052 8.58752 1.10302C8.58752 1.54789 8.79566 1.88816 9.17388 2.05837C9.47721 2.19649 9.7571 2.26711 10.0063 2.26711H10.483C10.5419 2.26711 10.6104 2.36498 10.637 2.40679C10.7266 2.54819 10.7725 2.75207 10.7725 3.01529C10.7725 3.21761 10.7572 3.42321 10.7258 3.62552C10.6894 3.86151 10.6718 4.07666 10.6718 4.26613C10.6718 4.41865 10.683 4.54064 10.7056 4.63694C10.7121 4.66418 10.7225 4.72854 10.7225 4.85695V5.80103C10.7225 5.95527 10.7306 6.08211 10.7467 6.16071C10.7306 6.51398 10.7225 6.81416 10.7225 7.05187V9.27074C10.7225 10.4766 10.6765 11.4223 10.5862 12.0806C10.508 12.665 10.3128 13.0809 10.0112 13.3153C9.92088 13.3795 9.81279 13.4807 9.68284 13.6219C9.58435 13.7263 9.4522 13.8291 9.2892 13.9287C9.11976 14.0314 8.89887 14.1277 8.63424 14.2144C8.37371 14.2979 8.04961 14.3397 7.67124 14.3397C7.45271 14.3397 7.25589 14.3284 7.08566 14.3075C6.94123 14.2882 6.79602 14.2433 6.65411 14.1742C6.49442 14.0956 6.3201 13.9896 6.13382 13.8579C5.94597 13.7264 5.73059 13.5449 5.49177 13.3217C5.41845 13.2527 5.27969 13.0616 5.17805 12.5558C5.09011 12.1207 5.02875 11.5266 4.99571 10.7897C4.96267 10.0463 4.94175 9.13592 4.93357 8.08739L4.89581 4.45561L4.85223 2.35214L4.93687 2.21903L6.60896 2.17237L7.15583 1.50921L7.12263 0.799548L6.56144 0.179922L6.01457 0.0416529L5.18608 0.0369552L4.5393 0.152518L3.81732 0.154084L3.0826 0.0369552L1.42734 0.0466638C1.01451 0.160505 0.773329 0.361253 0.711185 0.640609C0.671695 0.815676 0.652344 1.06779 0.652344 1.40978C0.652344 1.87375 0.935378 2.05681 1.10482 2.12586Z" clip-rule="evenodd" fill-rule="evenodd"></path>
<path fill="black" d="M80.4951 4.37894C80.3836 4.32864 80.2404 4.27988 80.0702 4.23111C79.9086 4.18556 79.7455 4.14615 79.6022 4.11793C79.4191 4.07392 79.2385 4.03619 79.0094 4C77.7608 4 76.6816 4.45133 75.8038 5.33972C75.8038 5.33972 75.2579 5.86803 75.238 5.89165C75.2182 5.74688 75.2076 5.58187 75.2076 5.39309C75.1879 4.96538 75.0892 4.65882 74.9062 4.45439C74.711 4.2374 74.3841 4.13204 73.9066 4.13204C73.7578 4.13204 71.9537 4.16501 71.9537 4.16501C71.5328 4.18081 70.9549 4.20289 70.6565 4.71065C70.4893 4.99528 70.4542 5.33803 70.5601 5.65257C70.6605 5.94502 70.8667 6.16831 71.2501 6.30525L71.4174 6.31154C71.6091 6.31154 71.8446 6.29574 72.1175 6.26584C72.369 6.23762 72.6308 6.22336 72.896 6.22336C73.0201 6.22336 73.121 6.23133 73.2462 6.29574C73.2635 6.32412 73.3081 6.41521 73.3343 6.648C73.3575 6.85396 73.3694 7.14488 73.3694 7.51125C73.3694 7.61507 73.3654 7.69987 73.359 7.76122C73.3495 7.84464 73.3449 7.94831 73.3449 8.08204C73.3449 8.2975 73.3694 8.61833 73.4203 9.06015C73.468 9.47053 73.4928 10.0192 73.4928 10.6891C73.4928 10.7929 73.4729 10.9754 73.4348 11.2363C73.3916 11.5241 73.3694 11.9393 73.3694 12.4645C73.3694 12.6059 73.3798 12.7208 73.4012 12.8151C73.4124 12.8686 73.4188 12.9456 73.4188 13.0353C73.4188 13.257 73.3734 13.3184 73.3758 13.3184C73.3679 13.323 73.2652 13.3811 72.896 13.3811C72.7758 13.3811 72.6158 13.3592 72.4207 13.3184L72.2664 13.3198L72.2243 13.3388C72.1271 13.3702 72.0205 13.3859 71.8971 13.4047C71.6186 13.4457 71.2724 13.496 71.0177 13.79C70.8752 13.9536 70.7591 14.1706 70.6947 14.537C70.7504 14.7854 70.8363 14.9992 70.9581 15.188L71.0838 15.3044L71.1331 15.3185C71.3768 15.3922 71.6377 15.4286 71.9098 15.4286C72.0365 15.4286 72.1408 15.4191 72.2243 15.3987C72.248 15.3939 72.2862 15.3876 72.3881 15.3876C72.4207 15.3876 72.4598 15.3892 72.5076 15.3908C72.5664 15.4002 72.6372 15.4065 72.7232 15.4065C72.966 15.4065 73.2229 15.3876 73.4857 15.3484C73.7132 15.3152 73.913 15.2964 74.0793 15.2964H74.4248C74.5504 15.2964 74.6539 15.287 74.739 15.2682L74.8854 15.232C75.0103 15.2335 75.2515 15.2587 75.6023 15.3044C75.9996 15.3577 76.4906 15.3846 77.0619 15.3846C77.2401 15.3846 77.4106 15.3672 77.6358 15.32L77.7272 15.2541L77.7583 15.2116C77.95 14.9521 78.025 14.6926 77.9796 14.441C77.9318 14.1737 77.7511 13.9363 77.444 13.7349C77.0851 13.496 76.6903 13.3481 76.2001 13.2113C76.0354 13.2224 75.869 13.2271 75.7059 13.2271C75.5069 13.2271 75.4983 13.1721 75.4878 13.106C75.4488 12.8608 75.4114 12.4849 75.3805 11.98C75.3636 11.7788 75.3431 11.4392 75.3191 10.9691C75.2945 10.502 75.2818 9.86987 75.2818 9.0899C75.2818 8.87136 75.3908 8.58842 75.6048 8.24552C75.8388 7.87133 76.1213 7.50343 76.4452 7.15117C76.7636 6.80519 77.0914 6.50968 77.4208 6.27213C77.7965 6.00176 77.9756 5.96388 78.18 5.96388C78.1889 5.96388 78.3773 5.94824 78.3773 5.94824C78.8048 5.94824 79.0484 6.40739 79.3093 6.98753C79.4709 7.35559 79.6373 7.73453 80.1219 7.84924C80.2827 7.88544 80.4594 7.90599 80.632 7.90599C80.7323 7.90599 80.8326 7.8997 81.061 7.81949C81.505 7.65433 81.7922 7.32246 81.9371 6.80366L81.9499 6.64172C81.9578 6.21876 81.8369 5.78936 81.5862 5.36947C81.3338 4.94498 80.9687 4.61312 80.4951 4.37894Z" clip-rule="evenodd" fill-rule="evenodd"></path>
<path fill="black" d="M99.5508 11.0718C99.76 10.8004 99.9915 10.6062 100.237 10.4942C100.281 10.4735 100.424 10.4246 100.82 10.3899C101.136 10.3599 101.507 10.3378 101.923 10.3236C102.324 10.3094 102.709 10.27 103.063 10.21C103.401 10.1515 103.716 10.0916 104.001 10.0315L104.711 9.87683C104.931 9.82633 105.023 9.81848 105.057 9.81848L105.111 9.92271C105.111 10.4483 105.065 10.8761 104.976 11.1917C104.889 11.5011 104.787 11.7521 104.673 11.9337C104.563 12.1042 104.459 12.2273 104.362 12.3C104.22 12.4041 104.122 12.4798 104.081 12.5178C103.486 12.9992 102.888 13.3148 102.301 13.4569C101.948 13.5437 101.611 13.5879 101.3 13.5879C101.097 13.5879 100.901 13.569 100.717 13.5327C100.269 13.4428 99.9049 13.258 99.6358 12.9818C99.3759 12.7183 99.25 12.4167 99.25 12.0567C99.25 11.6606 99.3507 11.329 99.5508 11.0718ZM109.079 11.2818C108.706 11.2818 108.426 11.4744 108.309 11.8122C108.227 12.0489 108.177 12.3488 108.158 12.7024C108.146 12.9866 108.09 13.2123 107.994 13.3717C107.914 13.5074 107.835 13.5264 107.763 13.5264C107.632 13.5264 107.519 13.5201 107.434 13.5074C107.433 13.5074 107.37 13.4885 107.24 13.3449C107.025 13.1019 106.907 12.8335 106.88 12.5242C106.848 12.1625 106.831 11.6733 106.831 11.0672C106.831 10.3663 106.867 9.78695 106.938 9.34496C107.015 8.85879 107.051 8.54304 107.051 8.3837C107.051 8.24469 107.037 8.1089 107.007 7.98113C106.984 7.88168 106.963 7.82164 106.955 7.82164H106.954L106.967 7.48064C106.974 7.24078 106.948 6.96445 106.886 6.65978C106.823 6.34264 106.707 6.02058 106.541 5.69852C106.362 5.34813 106.071 5.04978 105.677 4.81301C105.12 4.48771 104.718 4.32514 104.415 4.29681C104.07 4.26679 103.979 4.26356 103.953 4.26356H103.95C103.681 4.2494 103.409 4.20521 103.14 4.13116C102.82 4.04434 102.53 4 102.277 4C101.841 4 101.466 4.02217 101.17 4.06959C100.876 4.11531 100.624 4.16411 100.427 4.21938C100.215 4.27788 100.056 4.33638 99.9392 4.39934C99.8369 4.45307 99.7911 4.47047 99.7597 4.48001C99.4354 4.59347 99.1411 4.7562 98.8892 4.95972C98.6452 5.15554 98.4327 5.36707 98.255 5.59276C98.0723 5.82168 97.9338 6.05999 97.8424 6.30154C97.7463 6.55402 97.699 6.76724 97.699 6.95352C97.699 7.3955 97.8817 7.7522 98.2437 8.01115C98.5004 8.19419 98.8262 8.30781 99.3362 8.33783C99.9454 8.15786 100.385 7.678 100.607 6.95352C100.7 6.64885 100.791 6.38036 101.006 6.08524C101.006 6.08524 101.059 6.0095 101.315 5.89742C101.513 5.81214 101.682 5.76965 101.814 5.76965C102.225 5.76965 102.656 5.78381 103.097 5.81214C103.491 5.83908 103.875 5.96532 104.238 6.18793C104.534 6.36635 104.759 6.58727 104.909 6.84606C105.114 7.19814 105.136 7.36071 105.136 7.41444C105.136 7.61642 105.07 7.76806 104.926 7.89276C104.763 8.0347 104.545 8.12476 104.276 8.16109C103.898 8.22098 103.585 8.27794 103.344 8.32998C103.121 8.37893 103.036 8.39463 102.919 8.39463C102.9 8.39463 102.881 8.39309 102.861 8.39309C102.796 8.38201 102.716 8.37739 102.619 8.37739C102.48 8.37739 102.274 8.39309 101.987 8.42311C101.724 8.45314 101.367 8.48146 100.895 8.50994C99.7944 8.57306 98.9286 8.92822 98.3225 9.56434C97.7148 10.2022 97.4062 11.1302 97.4062 12.322C97.4062 12.6426 97.4898 12.9866 97.655 13.3449C97.8172 13.6954 98.0534 14.0221 98.354 14.3157C98.6517 14.6094 99.0057 14.8588 99.4102 15.056C99.8243 15.2597 100.297 15.3624 100.814 15.3624C101.044 15.3624 101.24 15.3733 101.397 15.3922C101.665 15.4286 101.698 15.4286 101.715 15.4286H101.716C101.949 15.4286 102.321 15.3402 102.853 15.1587C103.369 14.9835 104.024 14.6662 104.802 14.2179L105.153 14.011C105.218 13.9731 105.265 13.9542 105.285 13.9353C105.312 13.9779 105.342 14.019 105.378 14.0615C105.636 14.3742 105.849 14.5983 106.023 14.7483C106.208 14.9061 106.364 15.0166 106.499 15.0845C106.658 15.1681 106.801 15.2092 106.935 15.2092C106.996 15.2092 107.066 15.2138 107.115 15.2187L107.294 15.2896C107.399 15.3387 107.516 15.3624 107.642 15.3624C108.336 15.3624 108.912 15.0956 109.356 14.5683C109.784 14.0584 110.002 13.4428 110.002 12.7388C110.002 12.371 109.959 12.0585 109.874 11.8106C109.756 11.4696 109.473 11.2818 109.079 11.2818Z" clip-rule="evenodd" fill-rule="evenodd"></path>
<path fill="black" d="M93.7093 10.6238C93.5289 10.1519 93.2435 9.77034 92.8639 9.48842C92.5108 9.22519 92.0997 9.01648 91.6449 8.86702C91.2072 8.7253 90.7381 8.62095 90.2518 8.56171C89.7718 8.50262 89.3027 8.46206 88.8541 8.44034C88.4086 8.41847 87.999 8.39204 87.6368 8.36394C87.2963 8.33751 87.0327 8.28602 86.8508 8.21129C86.5747 8.1039 86.3865 7.96841 86.2875 7.80633C86.1808 7.63029 86.1261 7.35931 86.1261 7.00114C86.1261 6.97304 86.1432 6.89208 86.3032 6.7613C86.4899 6.60864 86.7159 6.44824 86.9683 6.28936C87.4108 6.03235 87.5927 5.99818 87.6493 5.99499C87.8266 5.98876 88.0272 5.9842 88.2437 5.9842C88.6846 5.9842 89.1379 6.04025 89.5914 6.15083C90.0305 6.2567 90.3506 6.37974 90.5451 6.51675C90.7853 6.68034 90.9687 6.86413 91.0879 7.0619C91.2245 7.28609 91.3357 7.49951 91.4174 7.7035C91.5068 7.92162 91.5916 8.11164 91.6684 8.27204C91.8362 8.62398 92.1076 8.677 92.2534 8.677C92.5484 8.677 92.812 8.56171 93.0364 8.3328C93.2543 8.10694 93.3658 7.81256 93.3658 7.45591C93.3658 7.0821 93.336 6.84545 93.2669 6.6896C93.2355 6.6211 93.2199 6.55259 93.2199 6.47938C93.2199 6.24273 93.2324 5.98876 93.256 5.72553C93.2811 5.44209 93.2936 5.16959 93.2936 4.91562C93.2936 4.69446 93.176 4.49989 92.9422 4.33797C92.743 4.20081 92.528 4.13078 92.3022 4.13078C92.0574 4.13078 91.8552 4.25063 91.7468 4.45948C91.6841 4.57766 91.6244 4.71482 91.571 4.86899C91.5258 4.99673 91.4786 5.11354 91.3954 5.1462C91.2935 5.07147 91.1681 4.9858 91.0126 4.88448C90.8621 4.78955 90.6895 4.68672 90.4949 4.58085C90.2831 4.46556 90.04 4.38156 89.7781 4.33311C89.4879 4.26308 89.2181 4.19002 88.9749 4.11985C88.6955 4.0404 88.3929 4 88.0743 4C87.5127 4 87.0343 4.09023 86.6547 4.26779L85.8608 4.63371C85.2177 4.91258 84.7863 5.32057 84.5776 5.84552C84.3862 6.3284 84.289 6.91395 84.289 7.58669C84.289 7.72218 84.3408 7.89671 84.4505 8.13655C84.5447 8.34526 84.6718 8.56794 84.8287 8.80003C84.987 9.03835 85.1691 9.2548 85.3667 9.44634C85.5895 9.66279 85.8248 9.80922 86.0664 9.8794C86.4209 9.98527 86.7801 10.0615 87.1363 10.1068C87.4893 10.1519 87.8438 10.194 88.1889 10.2283C88.5466 10.264 88.9215 10.2968 89.3012 10.3264C89.6762 10.3544 90.0636 10.3964 90.4572 10.454C90.8166 10.507 91.1318 10.5927 91.3971 10.711C91.7092 10.8527 91.7938 10.8948 91.8818 10.9882C91.932 11.0662 91.9852 11.1564 92.0386 11.2562C92.0888 11.3526 92.1327 11.4507 92.2095 11.6891C92.2095 11.7576 92.194 11.8495 92.1625 11.9601C92.1264 12.0769 92.0746 12.1984 92.0056 12.3214C91.9336 12.4492 91.8472 12.5692 91.7499 12.6812C91.6684 12.7762 91.5805 12.8401 91.4692 12.8852C91.215 12.9973 90.9906 13.0955 90.7992 13.1734C90.6235 13.2449 90.4401 13.3027 90.255 13.3415C90.0651 13.3821 89.8642 13.4132 89.6604 13.4334C89.4502 13.4536 89.1961 13.4646 88.9011 13.4646C88.7521 13.4646 88.5888 13.4397 88.4149 13.3898C88.2311 13.3385 88.0397 13.2636 87.8453 13.1702C87.6478 13.0753 87.461 12.9694 87.2868 12.8541C87.1221 12.7467 86.9903 12.6407 86.9025 12.552C86.7832 12.4071 86.6782 12.2591 86.5809 12.1018C86.3833 11.8153 86.2217 11.5272 86.1024 11.2452C86.0476 11.1128 85.9691 10.9758 85.8608 10.8248C85.8043 10.7484 85.6349 10.5133 85.3778 10.5133C85.0828 10.5133 84.8412 10.5802 84.6607 10.7142C84.4428 10.8699 84.3375 11.1471 84.3375 11.5598C84.3375 11.6579 84.3438 11.7327 84.3548 11.7842L84.4986 11.9067C84.4986 11.9072 84.4985 11.9072 84.4985 11.9072L84.3486 12.0412C84.3187 12.1486 84.3172 12.2654 84.3423 12.3946C84.3643 12.5161 84.4003 12.6205 84.4599 12.7747C84.4599 12.9632 84.4474 13.1345 84.427 13.284C84.4035 13.435 84.3784 13.5659 84.3455 13.6827C84.3141 13.8212 84.2828 13.9365 84.2402 14.1203C84.2402 14.5673 84.2968 14.8679 84.4191 15.0627C84.5023 15.1997 84.7095 15.4286 85.1581 15.4286C85.4688 15.4286 85.7228 15.3055 85.8953 15.0751C86.0303 14.8913 86.1512 14.6219 86.2624 14.2418L86.3 14.0922C86.3439 14.1001 86.3707 14.111 86.3816 14.1203C86.4617 14.1858 86.537 14.2558 86.617 14.3415C86.8225 14.5409 87.1081 14.7215 87.461 14.8789C87.817 15.0393 88.0523 15.128 88.2015 15.1608C88.3379 15.1903 88.479 15.2184 88.6219 15.2402C88.7506 15.2604 88.8667 15.2837 88.9764 15.3118C89.1191 15.3444 89.2603 15.3663 89.4346 15.385C89.4924 15.385 89.5852 15.3771 89.7356 15.3616C89.8737 15.3459 90.0305 15.3227 90.2031 15.2931C90.3757 15.2651 90.5562 15.2323 90.7459 15.1934C90.9404 15.1561 91.1241 15.1155 91.2981 15.0672C91.6668 14.9583 92.0308 14.7838 92.379 14.5502C92.732 14.3135 92.9783 14.1078 93.1351 13.9148C93.2073 13.8182 93.2936 13.6795 93.3955 13.5051C93.5022 13.326 93.5964 13.1266 93.6747 12.9149C93.7486 12.7156 93.8176 12.5067 93.8773 12.2935C93.94 12.0676 93.9729 11.8574 93.9729 11.6674C93.9729 11.566 93.9478 11.4228 93.8899 11.2016C93.8411 11.0054 93.78 10.8122 93.7093 10.6238Z" clip-rule="evenodd" fill-rule="evenodd"></path>
<mask height="16" width="10" y="0" x="111" maskUnits="userSpaceOnUse" style="mask-type:luminance" id="mask1_503_2114">
<path fill="white" d="M111.279 0.62793H120.879V15.9843H111.279V0.62793Z" clip-rule="evenodd" fill-rule="evenodd"></path>
</mask>
<g mask="url(#mask1_503_2114)">
<path fill="black" d="M120.047 13.819C119.779 13.776 119.453 13.7552 119.08 13.7552C118.866 13.7552 118.748 13.7391 118.643 13.7263C118.555 13.7151 118.473 13.7056 118.37 13.7056C118.288 13.7056 118.19 13.7104 118.064 13.728C117.652 13.7855 117.331 13.8144 117.138 13.8223C117.115 13.8047 117.042 13.688 116.998 13.3749C116.932 12.9131 116.899 12.1699 116.899 11.1681C116.899 11.0115 116.909 10.8166 116.926 10.5896C116.942 10.3403 116.95 10.0942 116.95 9.85453C116.95 9.62123 116.937 9.38154 116.912 9.14185C116.888 8.92461 116.875 8.73604 116.875 8.58424C116.875 8.55541 116.878 8.46752 116.899 8.23422C116.917 8.02804 116.926 7.7804 116.926 7.49271C116.926 7.22107 116.934 6.99572 116.95 6.81853C116.971 6.56762 116.976 6.50045 116.976 6.4685C116.976 6.34539 116.971 6.22087 116.963 6.09931C116.952 5.96996 116.939 5.86445 116.921 5.78777C116.907 5.71905 116.899 5.65671 116.899 5.60076C116.899 5.50648 116.906 5.42497 116.919 5.36107C116.94 5.25884 116.95 5.139 116.95 4.99827C116.95 4.91676 116.942 4.7938 116.924 4.61162C116.909 4.46466 116.901 4.31131 116.896 4.18024L116.944 3.95333C116.962 3.87027 116.981 3.75837 116.998 3.62419C117.017 3.48502 117.027 3.32372 117.027 3.14949C117.027 2.99131 116.998 2.8618 116.926 2.63816C116.909 2.39692 116.899 2.16035 116.899 1.93671C116.899 1.61224 116.885 1.50206 116.862 1.43816C116.803 1.21764 116.62 1.02736 116.299 0.854839C116.013 0.704605 115.723 0.62793 115.435 0.62793C115.335 0.62793 115.19 0.643826 114.987 0.677488C114.832 0.703047 114.666 0.717384 114.498 0.717384C114.246 0.717384 114.023 0.720657 113.837 0.728605C113.654 0.736553 113.487 0.747774 113.353 0.763826C113.214 0.776605 113.096 0.784553 113.004 0.784553C112.872 0.784553 112.793 0.816501 112.782 0.827722L112.559 0.843618C112.437 0.846891 112.003 0.872449 111.591 1.02736L111.466 1.11058L111.442 1.14564C111.385 1.22871 111.339 1.31505 111.283 1.49411C111.259 1.82809 111.352 2.14757 111.584 2.43993L111.785 2.52471L111.834 2.53593C112.188 2.61572 112.549 2.63661 112.945 2.63661C113.078 2.63661 113.215 2.63505 113.357 2.63177C113.65 2.60933 113.924 2.59827 114.169 2.59827C114.46 2.59827 114.694 2.63505 114.863 2.70533C114.985 2.75801 114.985 2.79962 114.985 2.83796V4.25209C114.985 4.50783 114.994 4.71557 115.01 4.87375C115.01 5.07339 115.02 5.25089 115.036 5.38507C115.034 5.60232 115.015 5.83889 114.975 6.08653C114.931 6.36939 114.908 6.63946 114.908 6.87603C114.892 7.20346 114.884 7.49442 114.884 7.73879C114.884 7.96102 114.876 8.15271 114.859 8.31261C114.841 8.51224 114.833 8.69442 114.833 8.85261C114.833 8.95811 114.84 9.03011 114.858 9.23458C114.841 9.29364 114.833 9.36393 114.833 9.45339C114.833 9.6404 114.856 9.79546 114.9 9.9217C114.923 9.98715 114.935 10.0799 114.935 10.1885C114.935 10.9891 114.926 11.6251 114.908 12.082C114.897 12.3921 114.884 12.7803 114.884 12.8619C114.884 13.0361 114.887 13.207 114.897 13.3669C114.904 13.5106 114.9 13.6417 114.887 13.7584L115.027 13.7742V13.7745L114.676 13.9261C114.565 13.9261 114.477 13.923 114.4 13.9149C114.4 13.9149 113.947 13.8702 113.876 13.8702C113.802 13.8702 113.735 13.875 113.659 13.8893L113.068 13.8287C112.921 13.8144 112.755 13.7999 112.589 13.7999L112.302 13.8384C112.188 13.8942 112.062 13.9358 111.813 14.0061C111.648 14.1067 111.519 14.2345 111.38 14.5253C111.357 14.8785 111.465 15.2428 111.658 15.4554C111.79 15.6024 111.962 15.7175 112.284 15.8308C112.368 15.8357 112.454 15.8405 112.546 15.8405C112.684 15.8405 112.832 15.8308 112.994 15.8022L113.145 15.8996C113.145 15.8996 113.442 15.9652 113.539 15.9812L113.587 15.9843C113.745 15.9843 113.883 15.9619 113.997 15.9172C114.018 15.9092 114.069 15.8949 114.169 15.8949H114.98C116.153 15.8949 117.107 15.8612 117.811 15.7942C117.996 15.7766 118.123 15.7702 118.216 15.7702C118.336 15.7702 118.391 15.7814 118.571 15.8068C118.668 15.8374 118.781 15.8612 118.892 15.8742C119.124 15.9236 119.427 15.9476 119.816 15.9476C119.939 15.9476 120.078 15.9189 120.24 15.8612C120.294 15.8438 120.346 15.8213 120.443 15.7702C120.625 15.6455 120.749 15.4889 120.811 15.3052C121.017 14.7187 120.754 14.1466 120.047 13.819Z" clip-rule="evenodd" fill-rule="evenodd"></path>
</g>
<path fill="black" d="M69.0905 34.6235C68.9077 34.1509 68.6231 33.7677 68.2443 33.4866C67.8884 33.2228 67.4789 33.014 67.0264 32.8663C66.5931 32.7251 66.1242 32.6214 65.6306 32.56C65.1523 32.5005 64.6824 32.4596 64.2356 32.4392C63.7888 32.4173 63.3791 32.3922 63.0177 32.3639C62.6778 32.3371 62.4144 32.2853 62.2317 32.2099C61.9582 32.1047 61.7691 31.9681 61.6694 31.8064C61.5627 31.6321 61.5081 31.3605 61.5081 31.0009C61.5081 30.9725 61.5255 30.894 61.6861 30.7621C61.8718 30.6099 62.0981 30.4497 62.3495 30.291C62.7899 30.0335 62.9727 30.0005 63.0313 29.9975C63.2082 29.9895 63.4084 29.9866 63.625 29.9866C64.0686 29.9866 64.5218 30.0429 64.972 30.1529C65.4108 30.2581 65.731 30.3822 65.9263 30.5188C66.1629 30.679 66.3446 30.8626 66.4673 31.0637C66.6033 31.2866 66.7141 31.5018 66.7978 31.7043C66.8864 31.9211 66.9703 32.1125 67.0477 32.2727C67.2154 32.626 67.4867 32.678 67.633 32.678C67.9304 32.678 68.1937 32.5617 68.4159 32.334C68.635 32.1095 68.7465 31.8142 68.7465 31.4562C68.7465 31.0825 68.7155 30.8454 68.6469 30.6898C68.6152 30.6208 68.6001 30.5534 68.6001 30.4794C68.6001 30.2439 68.6128 29.9895 68.6358 29.7259C68.661 29.4432 68.6737 29.17 68.6737 28.917C68.6737 28.6957 68.5558 28.5009 68.3211 28.336C68.1226 28.1995 67.9066 28.1305 67.6812 28.1305C67.4367 28.1305 67.2344 28.2513 67.1261 28.4585C67.0627 28.5778 67.0044 28.7161 66.9496 28.8685C66.9038 28.9973 66.8588 29.1135 66.7749 29.1463C66.6729 29.0709 66.5487 28.9847 66.3945 28.8856C66.2444 28.7882 66.0704 28.6862 65.8757 28.581C65.6591 28.4633 65.4076 28.3769 65.1586 28.336C64.8683 28.2623 64.5987 28.1901 64.3551 28.1193C64.0736 28.0409 63.7706 28 63.455 28C62.8953 28 62.4175 28.0896 62.0339 28.2669C61.705 28.4225 61.437 28.5464 61.2407 28.6329C60.5994 28.9108 60.1676 29.319 59.9581 29.8452C59.7667 30.3287 59.6695 30.9145 59.6695 31.5866C59.6695 31.7233 59.7192 31.8928 59.8307 32.1361C59.924 32.345 60.0513 32.568 60.2071 32.8005C60.3661 33.036 60.548 33.2542 60.7465 33.4458C60.9688 33.6625 61.2043 33.8086 61.4464 33.8792C61.8007 33.986 62.1613 34.063 62.5156 34.1069C62.8652 34.1524 63.2187 34.1932 63.5689 34.2295C63.9257 34.2655 64.2996 34.2984 64.6824 34.3267C65.0525 34.355 65.4416 34.3973 65.8378 34.454C66.1946 34.5073 66.51 34.5936 66.7756 34.7114C67.0874 34.8511 67.1727 34.8937 67.2614 34.9878C67.312 35.0664 67.3641 35.1574 67.4162 35.2563C67.467 35.3537 67.5105 35.4496 67.5879 35.6897C67.5879 35.7588 67.5713 35.8516 67.5396 35.9614C67.5057 36.0759 67.4536 36.1954 67.3846 36.3194C67.3143 36.4452 67.228 36.5674 67.1292 36.6805C67.047 36.7747 66.96 36.8392 66.8484 36.8832C66.5914 36.9977 66.3661 37.0951 66.177 37.1721C66.0022 37.2443 65.8196 37.3008 65.6369 37.34C65.4455 37.3793 65.2454 37.4123 65.0391 37.4311C64.8319 37.4516 64.5764 37.4625 64.2806 37.4625C64.1319 37.4625 63.9692 37.4374 63.7959 37.3872C63.6116 37.3354 63.4202 37.2616 63.2264 37.1689C63.0296 37.0731 62.8422 36.968 62.6674 36.8518C62.5061 36.7464 62.374 36.6413 62.2838 36.5534C62.1667 36.4073 62.0617 36.2612 61.9628 36.0997C61.7674 35.817 61.606 35.5295 61.4843 35.2454C61.4274 35.1071 61.3459 34.9658 61.2423 34.8244C61.1442 34.6895 60.9878 34.5105 60.7584 34.5105C60.4658 34.5105 60.2239 34.5779 60.0411 34.7129C59.8236 34.8685 59.7184 35.1463 59.7184 35.5594C59.7184 35.6568 59.724 35.7321 59.7351 35.7856L59.8798 35.9064L59.7295 36.0399C59.7002 36.1452 59.6979 36.2629 59.7232 36.3963C59.7453 36.5156 59.7817 36.621 59.8394 36.7747C59.8394 36.96 59.8284 37.1313 59.8064 37.2835C59.7841 37.4343 59.7581 37.5646 59.7255 37.6824C59.6948 37.8206 59.6647 37.9353 59.6211 38.1206C59.6211 38.5648 59.678 38.8633 59.8 39.0626C59.8836 39.1993 60.0917 39.4286 60.5401 39.4286C60.8485 39.4286 61.1031 39.3061 61.2771 39.0751C61.414 38.8915 61.5326 38.6198 61.6426 38.2461L61.5761 38.0829C61.7152 38.0844 61.758 38.1173 61.7635 38.1206C61.8419 38.1849 61.9178 38.2556 61.9977 38.3405C62.1993 38.5382 62.4831 38.7204 62.8414 38.8789C63.1948 39.0374 63.4307 39.127 63.5807 39.16C63.7193 39.1898 63.8599 39.2182 64.0023 39.2402C64.1305 39.2604 64.2476 39.2842 64.3582 39.3123C64.4982 39.3437 64.6397 39.3673 64.8152 39.3846C64.8738 39.3846 64.9664 39.3783 65.1174 39.361C65.251 39.3453 65.4085 39.3232 65.5846 39.2935L66.1256 39.1946C66.3193 39.1569 66.5029 39.116 66.6775 39.0675C67.0454 38.959 67.4093 38.7848 67.7594 38.5509C68.1176 38.3105 68.3566 38.1095 68.5154 37.9132C68.5875 37.8173 68.6745 37.6792 68.7774 37.5049C68.8816 37.3259 68.9757 37.1265 69.0549 36.9146C69.1292 36.715 69.1971 36.5063 69.2572 36.2926C69.3214 36.0634 69.3538 35.853 69.3538 35.6676C69.3538 35.5657 69.3285 35.4228 69.2716 35.1998C69.2202 35.0035 69.1601 34.8103 69.0905 34.6235Z" clip-rule="evenodd" fill-rule="evenodd"></path>
<path fill="black" d="M64.9686 8.17615C64.8649 8.2304 64.7566 8.26864 64.6751 8.28776L63.4932 8.35461C63.2432 8.35461 62.2759 8.33238 62.0963 8.33238C61.8337 8.33238 61.5211 8.34031 61.1406 8.35461C60.7815 8.36907 60.3686 8.37699 59.9153 8.37699C59.7657 8.37699 59.2049 8.39938 59.2049 8.39938H58.9351C58.8062 8.39938 58.7643 8.37699 58.8079 8.35943C58.8079 8.13464 58.8663 7.87487 58.9819 7.58961C59.0958 7.30264 59.28 7.02531 59.5284 6.76866C59.7801 6.50734 60.0949 6.28737 60.465 6.11357C60.8283 5.94148 61.2774 5.85381 61.802 5.85381C62.324 5.85381 62.7892 5.95096 63.1847 6.14388C63.5953 6.34473 63.9379 6.579 64.2045 6.84032C64.4717 7.10335 64.6728 7.37275 64.8041 7.64216C64.9741 7.99286 64.9923 8.15221 64.9686 8.17615ZM60.7555 15.2964C61.0316 15.3697 61.2767 15.4063 61.4841 15.4063C61.75 15.4063 62.5124 15.4286 62.5124 15.4286C62.8052 15.4286 63.1231 15.3793 63.4561 15.2837C63.7806 15.1912 64.1001 15.0732 64.4055 14.9345C64.7116 14.7974 64.9964 14.6445 65.2527 14.4819C65.5217 14.3113 65.7172 14.1615 65.8516 14.0212C65.9591 13.9064 66.0762 13.7613 66.2003 13.5844C66.3191 13.4139 66.4266 13.2465 66.52 13.084C66.6149 12.9198 66.694 12.7684 66.7548 12.6344C66.8561 12.4129 66.8695 12.3173 66.8695 12.247C66.8695 11.9714 66.8142 11.7339 66.7035 11.5425C66.565 11.3067 66.3388 11.176 66.0659 11.176C65.9844 11.176 65.9053 11.1966 65.6261 11.3274C65.3998 11.4357 65.195 11.635 65.0168 11.9235C64.3041 13.0649 63.2362 13.6195 61.7531 13.6195C61.4485 13.6195 61.151 13.5668 60.8695 13.4616C60.5759 13.3533 60.3062 13.2146 60.0672 13.0521C59.8245 12.8863 59.6148 12.7109 59.4447 12.5292C59.2873 12.3619 59.1781 12.2088 59.1196 12.0655C59.0136 11.8438 58.9241 11.6207 58.8545 11.3975C58.7834 11.1696 58.7232 10.9577 58.6759 10.7679C58.6299 10.591 58.599 10.4428 58.5848 10.3297L58.645 10.0968C58.7968 10.0379 59.0096 10.0076 59.2786 10.0076C59.4487 10.0076 59.595 10.0124 59.7121 10.0187L60.1741 10.0522C60.3401 10.0585 60.5071 10.0618 60.674 10.0618C60.9223 10.0618 61.17 10.0539 61.4145 10.0411C61.5434 10.0348 61.6683 10.0299 61.7895 10.0299C62.0235 10.0299 62.2411 10.0442 62.5647 10.1C62.6431 10.1288 62.7355 10.1416 62.8558 10.1416C63.237 10.1416 63.5827 10.1304 63.8842 10.108C64.1674 10.0857 64.3817 10.0746 64.5224 10.0746C64.7218 10.0746 64.9165 10.0857 65.0992 10.1049C65.3104 10.1304 65.4828 10.1416 65.6244 10.1416C66.0287 10.1416 66.3404 10.0937 66.5777 9.9948C66.8917 9.86407 67.065 9.59793 67.065 9.24722C67.065 8.80418 67.0056 8.63675 66.9527 8.53959C66.9068 8.45502 66.8704 8.38491 66.8388 8.31325C66.8104 8.25107 66.7596 8.10914 66.6765 7.77133C66.5967 7.4525 66.456 7.09697 66.2574 6.7144C66.0586 6.32871 65.7795 5.93666 65.4276 5.54615C65.0643 5.14601 64.5826 4.80805 64.0012 4.54347C63.8383 4.46217 63.6381 4.38724 63.4047 4.32195C63.1809 4.25977 62.9854 4.20878 62.802 4.16261L62.0472 4C61.5401 4 61.1067 4.03498 60.7595 4.1068C60.4122 4.17691 60.1068 4.2694 59.8521 4.38086C59.5935 4.49404 59.3719 4.6184 59.1931 4.74743L58.7384 5.07264C58.4662 5.25437 58.2106 5.49827 57.9781 5.79799C57.7519 6.09118 57.5572 6.41484 57.3998 6.76228C57.2455 7.10334 57.1205 7.45405 57.0281 7.79838C56.9323 8.15064 56.8753 8.47896 56.8594 8.76593C56.8422 8.90926 56.8334 9.04637 56.8334 9.17074C56.8334 9.25686 56.827 9.32853 56.8144 9.38915L56.7598 9.69198C56.7598 10.3853 56.8334 11.0133 56.979 11.5616C57.1268 12.1275 57.2662 12.4973 57.4015 12.6918C57.6252 13.0249 57.8207 13.3119 57.9804 13.5398C58.1474 13.7789 58.2819 13.951 58.3958 14.0722C58.577 14.254 58.8143 14.4276 59.0997 14.5887C59.3696 14.7416 59.6464 14.882 59.9249 15.0031C60.2073 15.1275 60.4873 15.2263 60.7555 15.2964Z" clip-rule="evenodd" fill-rule="evenodd"></path>
<path fill="black" d="M75.079 33.7144C74.2245 33.7144 73.5243 33.9944 72.9974 34.5463C72.479 35.0907 72.2168 35.856 72.2168 36.8234C72.2168 37.5203 72.5134 38.1361 73.0993 38.6557C73.6769 39.1688 74.3166 39.4286 74.999 39.4286C75.3702 39.4286 75.7373 39.354 76.0906 39.2046C76.4278 39.0631 76.7351 38.8827 77.0053 38.6681C77.2813 38.4442 77.5065 38.1812 77.6758 37.8874C77.8525 37.5763 77.9419 37.2697 77.9419 36.9789C77.9419 35.9666 77.6895 35.1654 77.191 34.5978C76.6771 34.0115 75.9665 33.7144 75.079 33.7144Z" clip-rule="evenodd" fill-rule="evenodd"></path>
<path fill="black" d="M50.4192 37.9007C50.3656 37.7354 50.2702 37.591 50.1004 37.5124C49.926 37.4353 49.6594 37.3985 49.2838 37.3985C48.958 37.3985 48.6689 37.4018 48.3677 37.4113C48.21 37.4113 48.0788 37.3888 47.9874 37.3487C47.9081 37.3118 47.8522 37.254 47.8105 37.1689C47.7808 37.1047 47.7305 36.941 47.7305 36.5607C47.7305 36.4372 47.7055 35.9878 47.7009 35.8595C47.688 35.792 47.6816 35.7294 47.6816 35.6734C47.6816 35.4487 47.7032 35.2768 47.7457 35.1677C47.7849 35.0682 47.8369 34.9865 47.897 34.9319C47.9746 34.8628 48.0732 34.7954 48.1892 34.7329C48.3437 34.6526 48.5024 34.5467 48.6512 34.4265C48.7729 34.3462 48.9052 34.2467 49.0443 34.1311C49.1388 34.0509 49.1861 34.0396 49.1854 34.038C49.1949 34.0396 49.3462 34.0606 49.677 34.473C49.9621 34.8325 50.2911 35.3396 50.6555 35.9814C50.7772 36.2045 50.9029 36.3956 51.0261 36.5543C51.1415 36.7037 51.2543 36.8415 51.36 36.9602C51.4489 37.0598 51.5242 37.1496 51.6235 37.3454C51.6202 37.3471 51.5347 37.3921 51.1303 37.445C50.8564 37.4866 50.6627 37.575 50.5377 37.7113C50.4889 37.766 50.4497 37.8286 50.4192 37.9007ZM55.507 37.1978C55.0875 37.1978 54.7184 37.2171 54.4109 37.2573C54.2365 37.278 54.121 37.2909 54.0426 37.2909C53.9569 37.2909 53.9146 37.2765 53.8865 37.2412C53.7951 37.1257 53.6959 36.9748 53.5886 36.7965L53.2091 36.1562C53.0642 35.9108 52.9048 35.6684 52.7287 35.4325C52.5141 35.163 52.2747 34.8821 52.0151 34.5949L51.3049 33.8006C51.0895 33.5566 50.9031 33.3334 50.7509 33.1376C50.593 32.9354 50.5843 32.8553 50.6043 32.7847C50.6212 32.7621 50.6772 32.6997 50.8229 32.5904L51.3057 32.2342C51.498 32.0915 51.7389 31.8972 52.0232 31.655C52.3443 31.3822 52.6286 31.151 52.868 30.9696C53.109 30.7884 53.3011 30.6422 53.4557 30.5187C53.6006 30.3886 53.7192 30.3004 53.8063 30.2554C53.8913 30.2105 53.9689 30.1849 54.037 30.1753C54.0818 30.1705 54.3141 30.1672 54.3589 30.1672C54.507 30.1753 54.9482 30.1784 54.9505 30.1784C55.9602 30.1528 56.0691 29.4676 56.0691 29.1738C56.0691 28.7694 55.8458 28.5689 55.7128 28.4855C55.5287 28.3682 55.2701 28.2961 54.9241 28.2607C54.6232 28.2302 54.2419 28.2109 53.7912 28.203L52.2114 28.1709C52.0137 28.1709 51.823 28.1563 51.6429 28.1291C51.4258 28.097 51.2665 28.081 51.1545 28.081C51.0903 28.081 51.0047 28.089 50.8942 28.1083C50.7837 28.126 50.6693 28.158 50.5563 28.2045C50.4409 28.2512 50.3313 28.3153 50.2304 28.3956C50.0808 28.5158 50.0022 28.678 50.0022 28.8642C50.0022 29.1193 50.0462 29.3375 50.1328 29.5125C50.2512 29.7548 50.5403 29.8959 51.0408 29.9538C51.1024 29.9618 51.1648 29.9745 51.2537 29.9988C51.2225 30.0612 51.1576 30.1575 51.0207 30.2875C50.7942 30.5059 50.4137 30.8059 49.8908 31.1782C49.585 31.3917 49.3105 31.6083 49.0734 31.8218C48.8388 32.0337 48.637 32.2245 48.4729 32.3882C48.3151 32.5438 48.1758 32.6723 47.9323 32.8504C47.8875 32.8504 47.8466 32.8473 47.8147 32.8473C47.7746 32.8473 47.7497 32.852 47.7515 32.8697C47.7497 32.8665 47.7065 32.7782 47.7065 32.4347C47.7065 32.1411 47.7315 31.8154 47.7786 31.4687C47.8291 31.0915 47.8547 30.7449 47.8547 30.4384C47.8547 30.0099 47.8324 29.6538 47.7889 29.3793C47.7402 29.0711 47.7315 28.9652 47.7315 28.93C47.7315 28.5592 47.7466 28.2494 47.7786 28.0054C47.813 27.7279 47.8299 27.537 47.8299 27.4215C47.8299 27.1598 47.8171 26.9111 47.7914 26.6768C47.7682 26.4682 47.7561 26.3028 47.7561 26.1808C47.7561 26.1697 47.7594 26.1102 47.7802 25.8263C47.7971 25.5952 47.805 25.3048 47.805 24.9596C47.805 24.6018 47.6314 24.3226 47.3151 24.1733C47.0685 24.0578 46.8122 24 46.5551 24C46.3549 24 46.142 24.008 45.9177 24.0224C45.8168 24.0305 45.7248 24.0336 45.6399 24.0336C45.5623 24.0336 45.2468 24.0144 45.2468 24.0144C45.1827 24.0049 45.1042 24 45.0058 24C44.4837 24 44.0818 24.0626 43.7758 24.1909C43.398 24.3515 43.1898 24.6644 43.1898 25.0704C43.1898 25.2998 43.2811 25.7107 43.8936 25.8952C44.2427 26.0012 44.8096 26.067 45.6222 26.0974C45.7961 26.1087 45.8921 26.1487 45.9682 26.3125C45.9682 26.4007 45.965 26.4729 45.9586 26.5259L45.921 26.7939C45.9018 26.9994 45.9073 27.1823 45.9369 27.3395C45.9561 27.4326 45.9586 27.5563 45.9451 27.7168L45.9441 28.1098C45.9441 28.5881 45.9522 29.055 45.969 29.4965C45.985 29.941 45.993 30.3775 45.993 30.7931C45.993 30.992 45.981 31.2408 45.9569 31.5329C45.9323 31.8426 45.9194 32.191 45.9194 32.5681C45.9194 32.6883 45.9241 32.7862 45.9338 32.8601C45.9402 32.9179 45.9441 32.99 45.9441 33.0783C45.9441 33.1955 45.9241 33.3865 45.8857 33.6416C45.8432 33.9272 45.8209 34.2756 45.8209 34.6752C45.8209 34.9912 45.7961 35.8064 45.7961 35.8064C45.7961 36.0376 45.8209 36.8272 45.8209 36.9379C45.8209 37.1128 45.792 37.1737 45.7968 37.1737H45.7976C45.7801 37.1867 45.6936 37.2348 45.4389 37.2651C45.2508 37.2861 45.0875 37.2974 44.8729 37.2974H44.8096C44.647 37.2909 44.5126 37.2797 44.4053 37.2668C44.3059 37.254 44.2138 37.238 44.1346 37.2171C44.0201 37.1898 43.8992 37.1753 43.7758 37.1753C43.4836 37.1753 43.2514 37.3359 43.1392 37.6168C43.0568 37.819 43.0176 38.0611 43.0176 38.3582C43.0176 38.5571 43.0929 38.9263 43.5997 39.1733C43.9152 39.3306 44.3756 39.406 45.0058 39.406C45.7008 39.406 46.3021 39.3837 46.793 39.3387C47.2629 39.2952 47.605 39.2728 47.8091 39.2728C47.9796 39.2728 48.1894 39.2841 48.4337 39.3049C48.6954 39.3273 48.9645 39.3387 49.2358 39.3387C49.573 39.3387 49.8557 39.2713 50.0742 39.1397C50.256 39.0306 50.3817 38.8781 50.4434 38.6952C50.4979 38.7978 50.5771 38.9021 50.6805 39.0097C50.9038 39.2423 51.2289 39.3611 51.646 39.3611C51.7622 39.3611 51.8526 39.358 51.9207 39.3483C51.9528 39.3452 52.0112 39.3387 52.1128 39.3387C52.8864 39.3387 53.5165 39.3547 53.9873 39.3837C54.4845 39.414 54.7648 39.4286 54.8673 39.4286C55.3574 39.4286 55.7713 39.3755 56.0972 39.2696C56.6721 39.0819 56.7579 38.7288 56.7579 38.5347C56.7579 37.6857 56.3023 37.1978 55.507 37.1978Z" clip-rule="evenodd" fill-rule="evenodd"></path>
</svg>
